<svg width="113" height="112" viewBox="0 0 113 112" fill="none" xmlns="http://www.w3.org/2000/svg">
<path fill-rule="evenodd" clip-rule="evenodd" d="M55.8578 0.73348C56.2306 0.421092 56.7742 0.422304 57.1456 0.736351L75.7908 16.5H92C92.5523 16.5 93 16.9477 93 17.5V31.0496L112.146 47.2364C112.37 47.4264 112.5 47.7057 112.5 48V111C112.5 111.552 112.052 112 111.5 112H1C0.447715 112 0 111.552 0 111V48C0 47.7041 0.131003 47.4235 0.35778 47.2335L19.5 31.1954V17.5C19.5 16.9477 19.9477 16.5 20.5 16.5H37.0397L55.8578 0.73348ZM40.1539 16.5H72.6931L56.4971 2.80704L40.1539 16.5ZM19.5 33.8046L2.74643 47.8414L19.5 57.3502V33.8046ZM21.5 58.4853L56.4978 78.3489L91 58.5885V31.5136V18.5H75.4247H37.4032H21.5V31.6622V58.4853ZM93 57.4431L109.764 47.8418L93 33.6686V57.4431ZM110.5 49.7251L56.997 80.3678C56.6903 80.5434 56.3137 80.5441 56.0064 80.3697L2 49.7174V110H110.5V49.7251ZM56.5 56C61.7467 56 66 51.7467 66 46.5C66 41.2533 61.7467 37 56.5 37C51.2533 37 47 41.2533 47 46.5C47 51.7467 51.2533 56 56.5 56ZM56.5 58C62.8513 58 68 52.8513 68 46.5C68 40.9529 64.0726 36.3231 58.8467 35.2396C59.8485 34.5127 60.5 33.3324 60.5 32C60.5 29.7909 58.7091 28 56.5 28C54.2909 28 52.5 29.7909 52.5 32C52.5 33.3324 53.1515 34.5127 54.1533 35.2396C48.9274 36.3231 45 40.9529 45 46.5C45 52.8513 50.1487 58 56.5 58ZM58.5 32C58.5 33.1046 57.6046 34 56.5 34C55.3954 34 54.5 33.1046 54.5 32C54.5 30.8954 55.3954 30 56.5 30C57.6046 30 58.5 30.8954 58.5 32Z" fill="black"/>
</svg>
